# xmcd CD database file
#
# Track frame offsets:
#	150
#	10865
#	24930
#	40254
#	58199
#	74568
#	86578
#	104781
#	121812
#	135814
#	150675
#	163072
#
# Disc length: 2394 seconds
#
# Revision: 0
# Processed by: cddbd v1.5.1PL0 Copyright (c) Steve Scherf et al.
# Submitted via: CDex 1.51
#
DISCID=9909580c
DTITLE=Various Artist - Jazzball
DYEAR=1900
DGENRE=Jazz
TTITLE0=At the Jazzband Ball
TTITLE1=Every Lonely river
TTITLE2=Name
TTITLE3=Loths Blossom
TTITLE4=Medley
TTITLE5=When the Saints
TTITLE6=Wang, Wang Blues
TTITLE7=Ballad of Jesse James
TTITLE8=When You're Smiling
TTITLE9=Muskrat Rubble
TTITLE10=John Henry
TTITLE11=Jazz Me Blues
EXTD=
EXTT0=
EXTT1=
EXTT2=
EXTT3=
EXTT4=
EXTT5=
EXTT6=
EXTT7=
EXTT8=
EXTT9=
EXTT10=
EXTT11=
PLAYORDER=
